<?xml version="1.0" encoding="UTF-8" standalone="no"?>
<svg width="456px" height="456px" viewBox="0 0 456 456" version="1.1" xmlns="http://www.w3.org/2000/svg" xmlns:xlink="http://www.w3.org/1999/xlink">
    <!-- Generator: Sketch 39.1 (31720) - http://www.bohemiancoding.com/sketch -->
    <title>Slice 1</title>
    <desc>Created with Sketch.</desc>
    <defs></defs>
    <g id="Page-1" stroke="none" stroke-width="1" fill="none" fill-rule="evenodd">
        <rect id="Rectangle" x="0" y="0" width="456" height="456"></rect>
        <path d="M9.01302382,126.616432 L284.80796,126.616432 L284.80796,134.162594 L277.093487,136.359498 C277.093487,136.359498 281.734992,138.690266 284.80796,139.032572 C289.733955,139.581291 301.090377,139.032572 301.090377,139.032572 L301.606174,141.904908 C301.606174,141.904908 328.60324,141.484967 356.974221,141.904908 C398.303679,142.516656 444.607393,140.214203 445.967803,143.566506 C447.328213,146.918809 417.845917,176.530185 377.555007,193.510631 C337.264097,210.491077 301.606174,209.716592 301.606174,209.716592 L301.606174,213.079019 L284.80796,213.079019 C281.507542,213.079019 276.837856,214.447022 276.837856,214.447022 C276.837856,214.447022 276.837856,218.483959 272.165639,220.0633 C267.493423,221.642641 257.710888,221.247316 255.424373,229.401406 C252.402365,240.178383 251.520313,254.039377 259.373991,261.148942 C267.227668,268.258507 286.126608,268.331906 292.36298,271.151435 C298.599352,273.970963 316.044235,298.754466 316.044235,298.754466 C316.044235,298.754466 319.176341,323.401296 316.044235,326.447349 C312.912128,329.493401 282.085874,327.792572 267.227668,326.447349 C252.369462,325.102125 246.89492,317.088994 238.202217,314.994596 C229.509515,312.900198 183.647885,312.897667 173.293584,314.994596 C162.939283,317.091525 156.371351,324.35295 147.524258,326.447349 C138.677165,328.541747 99.7795677,329.474419 97.109368,326.447349 C94.4391682,323.420278 97.109368,297.444676 97.109368,297.444676 C97.109368,297.444676 114.460604,273.921609 121.086749,271.151435 C127.712894,268.38126 145.48048,267.829504 153.669514,261.148942 C161.147375,255.048552 163.90992,225.688436 136.333463,208.338465 C108.757007,190.988494 34.1774419,179.056118 29.7368112,174.661045 C25.2961804,170.265972 20.0101972,135.75459 20.0101972,135.75459 L9.01302382,135.75459 L9.01302382,126.616432 Z" id="anvil" fill="#000000"></path>
    </g>
</svg>