<?xml version="1.0" encoding="UTF-8" standalone="no"?>
<svg width="237px" height="254px" viewBox="0 0 237 254" version="1.1" xmlns="http://www.w3.org/2000/svg" xmlns:xlink="http://www.w3.org/1999/xlink">
    <!-- Generator: Sketch 39.1 (31720) - http://www.bohemiancoding.com/sketch -->
    <title>Slice 2</title>
    <desc>Created with Sketch.</desc>
    <defs></defs>
    <g id="Vertical" stroke="none" stroke-width="1" fill="none" fill-rule="evenodd">
        <path d="M54,194 L135.41315,194 L135.41315,196.227585 L133.13588,196.876099 C133.13588,196.876099 134.506027,197.564129 135.41315,197.665176 C136.867277,197.827155 140.219631,197.665176 140.219631,197.665176 L140.371891,198.513074 C140.371891,198.513074 148.341277,198.38911 156.716234,198.513074 C168.916463,198.693659 182.585066,198.013987 182.986651,199.003569 C183.388237,199.99315 174.685225,208.734266 162.791569,213.7468 C150.897914,218.759334 140.371891,218.530711 140.371891,218.530711 L140.371891,219.523281 L135.41315,219.523281 C134.438885,219.523281 133.06042,219.927108 133.06042,219.927108 C133.06042,219.927108 133.06042,221.118789 131.681207,221.585002 C130.301994,222.051215 127.414244,221.934517 126.739277,224.34156 C125.847197,227.522864 125.58682,231.614554 127.905182,233.713258 C130.223545,235.811963 135.802408,235.83363 137.643351,236.665939 C139.484294,237.498248 144.633927,244.814202 144.633927,244.814202 C144.633927,244.814202 145.558508,252.089811 144.633927,252.988989 C143.709347,253.888167 134.609606,253.386092 130.223545,252.988989 C125.837484,252.591886 124.221429,250.226454 121.655391,249.608199 C119.089353,248.989944 105.551252,248.989197 102.494719,249.608199 C99.4381864,250.227201 97.4993689,252.370734 94.8877556,252.988989 C92.2761423,253.607244 80.7937853,253.882563 80.005557,252.988989 C79.2173287,252.095415 80.005557,244.42756 80.005557,244.42756 C80.005557,244.42756 85.1275467,237.483679 87.0835483,236.665939 C89.0395499,235.848199 94.2844434,235.685323 96.7018014,233.713258 C98.9092249,231.912456 99.724713,223.245512 91.5842945,218.123895 C83.4438761,213.002279 61.428398,209.479907 60.1175482,208.182506 C58.8066984,206.885105 57.2463052,196.697534 57.2463052,196.697534 L54,196.697534 L54,194 Z" id="anvil" fill="#000000"></path>
        <g id="forge" transform="translate(0.000000, 79.000000)">
            <rect id="Rectangle" fill="#000000" x="0" y="23" width="237" height="76" rx="2"></rect>
            <text id="FORGE" font-family="Kadwa-Regular, Kadwa" font-size="63" font-weight="normal" fill="#FFFFFF">
                <tspan x="14.3103027" y="83">FORGE</tspan>
            </text>
        </g>
        <text id="JB’s" font-family="Kadwa-Regular, Kadwa" font-size="100" font-weight="normal" letter-spacing="-1.58730376" fill="#000000">
            <tspan x="55.3134175" y="79">J</tspan>
            <tspan x="89.6147856" y="79" letter-spacing="-8.59">B</tspan>
            <tspan x="144.013067" y="79" letter-spacing="-19.59">’</tspan>
            <tspan x="152.401582" y="79" font-size="68" letter-spacing="-19.59">s</tspan>
        </text>
    </g>
</svg>