<?xml version="1.0" encoding="UTF-8" standalone="no"?>
<svg width="456px" height="78px" viewBox="0 0 456 78" version="1.1" xmlns="http://www.w3.org/2000/svg" xmlns:xlink="http://www.w3.org/1999/xlink">
    <!-- Generator: Sketch 39.1 (31720) - http://www.bohemiancoding.com/sketch -->
    <title>Slice</title>
    <desc>Created with Sketch.</desc>
    <defs></defs>
    <g id="Page-1" stroke="none" stroke-width="1" fill="none" fill-rule="evenodd">
        <path d="M355,17 L415.143477,17 L415.143477,18.6456154 L413.461158,19.1247012 C413.461158,19.1247012 414.473346,19.6329793 415.143477,19.707627 C416.217705,19.827288 418.694236,19.7076271 418.694236,19.7076271 L418.806717,20.3340064 C418.806717,20.3340064 424.694053,20.2424287 430.881003,20.3340064 C439.893849,20.4674123 449.991447,19.9653091 450.288116,20.6963564 C450.584785,21.4274037 444.155487,27.8848506 435.369121,31.5878303 C426.582754,35.2908101 418.806717,35.1219158 418.806717,35.1219158 L418.806717,35.8551709 L415.143477,35.8551709 C414.423745,35.8551709 413.405412,36.1534956 413.405412,36.1534956 C413.405412,36.1534956 413.405412,37.0338433 412.386527,37.3782552 C411.367641,37.722667 409.234333,37.6364574 408.735705,39.4146456 C408.076686,41.7648152 407.884335,44.7875262 409.597011,46.3379317 C411.309687,47.8883371 415.431039,47.9043434 416.791025,48.5192069 C418.15101,49.1340705 421.955271,54.5386877 421.955271,54.5386877 C421.955271,54.5386877 422.6383,59.9135001 421.955271,60.5777625 C421.272243,61.2420248 414.549864,60.8711197 411.309687,60.5777625 C408.069511,60.2844053 406.87566,58.5369565 404.980015,58.0802244 C403.08437,57.6234923 393.083179,57.6229403 390.825183,58.0802244 C388.567188,58.5375084 387.134898,60.1210304 385.205585,60.5777625 C383.276271,61.0344946 374.793748,61.2378853 374.21145,60.5777625 C373.629151,59.9176397 374.21145,54.2530577 374.21145,54.2530577 C374.21145,54.2530577 377.995289,49.1233076 379.440273,48.5192069 C380.885258,47.9151063 384.759891,47.7947829 386.5457,46.3379317 C388.176421,45.0076001 388.778858,38.6049465 382.765173,34.8213833 C376.751487,31.03782 360.487685,28.4356889 359.519302,27.4772414 C358.55092,26.5187939 357.398189,18.992787 357.398189,18.992787 L355,18.992787 L355,17 Z" id="anvil" fill="#000000"></path>
        <g id="forge" transform="translate(102.000000, 1.000000)">
            <rect id="Rectangle" fill="#000000" x="0" y="0" width="237" height="76" rx="2"></rect>
            <path d="M43.2878418,35.1137695 L43.2878418,40.1586914 L28.7990723,40.1586914 L28.7990723,54.9550781 L35.1052246,56.2163086 L35.1052246,60 L16.8327637,60 L16.8327637,56.2163086 L22.1853027,54.9550781 L22.1853027,20.9326172 L16.8327637,19.6713867 L16.8327637,16.2260742 L28.7990723,15.8876953 L48.0251465,15.8876953 L48.0251465,26.2851562 L43.9338379,26.2851562 L42.3342285,20.9326172 L28.7990723,20.9326172 L28.7990723,35.1137695 L43.2878418,35.1137695 Z M84.9238281,17.9487305 C87.8667139,19.7329191 90.1122969,22.2861162 91.6606445,25.6083984 C93.2089921,28.9306807 93.9831543,32.8373799 93.9831543,37.3286133 C93.9831543,41.9018783 93.111581,45.9521308 91.3684082,49.4794922 C89.6252354,53.0068536 87.1797032,55.7446192 84.0317383,57.6928711 C80.8837733,59.641123 77.2795613,60.6152344 73.2189941,60.6152344 C67.0461117,60.6152344 62.2986006,58.6977731 58.9763184,54.862793 C55.6540361,51.0278129 53.9929199,45.4907589 53.9929199,38.2514648 C53.9929199,33.6781998 54.823478,29.6484549 56.4846191,26.1621094 C58.1457603,22.6757638 60.5195158,19.9892672 63.605957,18.1025391 C66.6923982,16.2158109 70.3068641,15.2724609 74.4494629,15.2724609 C78.4895222,15.2724609 81.9809423,16.1645419 84.9238281,17.9487305 L84.9238281,17.9487305 Z M64.5288086,24.8701172 C62.3242077,27.7002095 61.2219238,32.058076 61.2219238,37.9438477 C61.2219238,43.665556 62.2524311,47.9824073 64.3134766,50.8945312 C66.374522,53.8066552 69.4455362,55.2626953 73.5266113,55.2626953 C77.7307339,55.2626953 80.9863166,53.7861476 83.293457,50.8330078 C85.6005975,47.879868 86.7541504,43.4809863 86.7541504,37.6362305 C86.7541504,32.0170617 85.6826279,27.7771139 83.5395508,24.9162598 C81.3964737,22.0554056 78.2639366,20.625 74.1418457,20.625 C69.9377231,20.625 66.7334095,22.0400249 64.5288086,24.8701172 L64.5288086,24.8701172 Z M105.641846,20.9326172 L100.289307,19.6713867 L100.289307,16.2260742 L112.255615,15.8876953 L119.177002,15.8876953 C123.62722,15.8876953 127.103259,16.897695 129.605225,18.9177246 C132.10719,20.9377542 133.358154,23.7114081 133.358154,27.2387695 C133.358154,33.411652 130.630643,37.5029196 125.175537,39.5126953 C126.180425,40.3945357 127.441643,42.2914893 128.959229,45.2036133 L133.942627,55.2011719 L138.403076,56.2163086 L138.403076,60 L128.959229,60 L123.606689,48.3413086 C122.601802,46.1674696 121.719974,44.5627493 120.961182,43.5270996 C120.202389,42.4914499 119.392338,41.7736836 118.531006,41.3737793 C117.669673,40.973875 116.521247,40.7739258 115.085693,40.7739258 L112.255615,40.7739258 L112.255615,54.9550781 L117.608154,56.2163086 L117.608154,60 L100.289307,60 L100.289307,56.2163086 L105.641846,54.9550781 L105.641846,20.9326172 Z M124.1604,33.9909668 C125.883065,32.6066825 126.744385,30.6738405 126.744385,28.1923828 C126.744385,26.1005755 126.011238,24.3676827 124.544922,22.9936523 C123.078606,21.619622 121.186779,20.9326172 118.869385,20.9326172 L112.255615,20.9326172 L112.255615,36.0673828 L116.99292,36.0673828 C120.048599,36.0673828 122.437736,35.3752511 124.1604,33.9909668 L124.1604,33.9909668 Z M176.347656,57.9543457 C174.778801,58.600345 172.79469,59.2053194 170.395264,59.7692871 C167.995838,60.3332548 165.411879,60.6152344 162.643311,60.6152344 C156.265349,60.6152344 151.312762,58.7490421 147.7854,55.0166016 C144.258039,51.284161 142.494385,45.9111679 142.494385,38.8974609 C142.494385,34.1191167 143.355704,29.9509455 145.078369,26.3928223 C146.801034,22.834699 149.246566,20.0918065 152.415039,18.1640625 C155.583512,16.2363185 159.31077,15.2724609 163.596924,15.2724609 C165.647715,15.2724609 167.724111,15.5031715 169.826172,15.9645996 C171.928233,16.4260277 173.779045,16.9387179 175.378662,17.5026855 C176.978279,18.0666532 177.778076,18.3691404 177.778076,18.4101562 L177.470459,28.8076172 L173.348389,28.8076172 L171.471924,21.8862305 C171.266845,21.8041988 170.774662,21.6657725 169.995361,21.4709473 C169.216061,21.2761221 168.195807,21.0864267 166.93457,20.9018555 C165.673334,20.7172842 164.345466,20.625 162.950928,20.625 C158.705789,20.625 155.439953,22.1681975 153.15332,25.2546387 C150.866688,28.3410799 149.723389,32.7861038 149.723389,38.5898438 C149.723389,44.085965 150.974353,48.2387555 153.476318,51.0483398 C155.978284,53.8579242 159.351785,55.2626953 163.596924,55.2626953 C164.888922,55.2626953 166.186029,55.1499035 167.488281,54.9243164 C168.790534,54.6987293 169.882564,54.457765 170.764404,54.201416 C171.646245,53.9450671 172.19995,53.7758793 172.425537,53.6938477 L172.425537,43.3579102 L167.072998,42.0966797 L167.072998,38.6513672 L183.438232,38.3129883 L183.438232,42.0966797 L178.700928,43.3579102 L178.700928,56.8623047 C178.700928,56.9443363 177.916512,57.3083464 176.347656,57.9543457 L176.347656,57.9543457 Z M215.584229,34.4985352 L215.584229,39.5126953 L201.095459,39.5126953 L201.095459,54.9550781 L215.584229,54.9550781 L216.845459,48.6489258 L220.936768,48.6489258 L220.936768,60 L189.098389,60 L189.098389,56.2163086 L194.450928,54.9550781 L194.450928,20.9326172 L189.098389,19.6713867 L189.098389,16.2260742 L201.095459,15.8876953 L220.290771,15.8876953 L220.290771,26.6235352 L216.199463,26.6235352 L214.630615,20.9326172 L201.095459,20.9326172 L201.095459,34.4985352 L215.584229,34.4985352 Z" id="FORGE" fill="#FFFFFF"></path>
        </g>
        <path d="M20.6816406,21.9326172 L20.6816406,58.1699219 C20.6816406,61.9843941 19.6203719,64.9836317 17.4978027,67.1677246 C15.3752335,69.3518176 12.4477726,70.4438477 8.71533203,70.4438477 C8.03857083,70.4438477 7.25928175,70.4028324 6.37744141,70.3208008 C5.49560106,70.2387691 4.93164186,70.1772463 4.68554688,70.1362305 L5.23925781,65.3989258 L8.40771484,65.3989258 C10.3764747,65.3989258 11.8120072,64.8964894 12.7143555,63.8916016 C13.6167037,62.8867137 14.0678711,61.3999122 14.0678711,59.4311523 L14.0678711,21.9326172 L8.71533203,20.6713867 L8.71533203,17.2260742 L26.0341797,16.8876953 L26.0341797,20.6713867 L20.6816406,21.9326172 Z M35.4316406,21.9326172 L30.0791016,20.6713867 L30.0791016,17.2260742 L41.737793,16.8876953 L48.9667969,16.8876953 C53.0888878,16.8876953 56.3803588,17.8156645 58.8413086,19.6716309 C61.3022584,21.5275972 62.5327148,24.2807435 62.5327148,27.9311523 C62.5327148,33.3452419 59.7949493,36.7495047 54.3193359,38.144043 C57.5595865,38.9028358 59.9999918,40.1589268 61.640625,41.9123535 C63.2812582,43.6657803 64.1015625,45.8242059 64.1015625,48.3876953 C64.1015625,52.7148654 62.7480604,55.8986714 60.0410156,57.939209 C57.3339708,59.9797465 53.3349874,61 48.0439453,61 L30.0791016,61 L30.0791016,57.2163086 L35.4316406,55.9550781 L35.4316406,21.9326172 Z M53.3964844,34.0065918 C55.0781334,32.8068788 55.9189453,30.9868286 55.9189453,28.5463867 C55.9189453,26.4135636 55.2473212,24.7780819 53.9040527,23.6398926 C52.5607843,22.5017033 50.8125108,21.9326172 48.6591797,21.9326172 L41.737793,21.9326172 L41.737793,35.8061523 L46.4443359,35.8061523 C49.3974757,35.8061523 51.7148353,35.2063048 53.3964844,34.0065918 L53.3964844,34.0065918 Z M55.1499023,54.0939941 C56.7085039,52.8532653 57.487793,51.0639765 57.487793,48.7260742 C57.487793,45.7114107 56.5649506,43.5888733 54.7192383,42.3583984 C52.8735259,41.1279235 50.1152527,40.5126953 46.4443359,40.5126953 L41.737793,40.5126953 L41.737793,55.9550781 L48.3515625,55.9550781 C51.3252102,55.9550781 53.5913008,55.334723 55.1499023,54.0939941 L55.1499023,54.0939941 Z M70.0458496,25.8393555 C70.5688014,25.0395468 71.0814916,24.1474659 71.5839355,23.1630859 C72.0863795,22.178706 72.3375977,21.3481479 72.3375977,20.6713867 C72.3375977,20.2612284 72.1530292,19.7177768 71.7838867,19.0410156 C71.1891572,17.9540961 70.8917969,16.969731 70.8917969,16.0878906 C70.8917969,14.8779236 71.2711876,13.8730509 72.0299805,13.0732422 C72.7887733,12.2734335 73.7731385,11.8735352 74.9831055,11.8735352 C76.1930725,11.8735352 77.1774376,12.2375452 77.9362305,12.9655762 C78.6950233,13.6936072 79.0744141,14.8779215 79.0744141,16.5185547 C79.0744141,18.2412196 78.4232975,20.2765996 77.1210449,22.6247559 C75.8187923,24.9729121 74.060265,27.3466677 71.8454102,29.7460938 L69.015332,27.3466797 C69.1793954,27.1416005 69.5228978,26.6391642 70.0458496,25.8393555 L70.0458496,25.8393555 Z M75.1436523,58.0981445 C75.8409215,58.214356 76.6680616,58.2724609 77.6250977,58.2724609 C80.7833166,58.2724609 82.3692382,57.1650501 82.3829102,54.9501953 C82.3829102,54.0478471 81.9966835,53.3676781 81.2242187,52.909668 C80.451754,52.4516579 79.2520589,51.9697291 77.6250977,51.4638672 C76.1348558,50.9853492 74.9283249,50.523928 74.0054687,50.0795898 C73.0826126,49.6352517 72.2930697,48.99268 71.6368164,48.1518555 C70.9805631,47.311031 70.6524414,46.2207098 70.6524414,44.8808594 C70.6524414,42.7753801 71.3667897,41.1552791 72.7955078,40.0205078 C74.2242259,38.8857365 76.0733285,38.3183594 78.3428711,38.3183594 C79.327251,38.3183594 80.3492135,38.4106436 81.4087891,38.5952148 C82.4683647,38.7797861 83.3706994,38.9746083 84.1158203,39.1796875 C84.8609412,39.3847667 85.3291983,39.521484 85.5206055,39.5898438 L85.3975586,45.25 L82.6700195,45.25 L81.9932617,41.96875 C81.9112301,41.9414061 81.7300795,41.8867192 81.4498047,41.8046875 C81.1695298,41.7226558 80.7764674,41.6474613 80.2706055,41.5791016 C79.7647436,41.5107418 79.2042023,41.4765625 78.5889648,41.4765625 C76.1006712,41.4765625 74.856543,42.4130766 74.856543,44.2861328 C74.856543,45.1884811 75.2564413,45.8823218 76.05625,46.3676758 C76.8560587,46.8530298 78.0625896,47.362302 79.6758789,47.8955078 C81.1251049,48.4013697 82.3145461,48.8696268 83.2442383,49.300293 C84.1739304,49.7309592 84.9600554,50.3530233 85.6026367,51.1665039 C86.2452181,51.9799845 86.5665039,53.001947 86.5665039,54.2324219 C86.5665039,56.5566522 85.6915127,58.3339782 83.9415039,59.5644531 C82.1914952,60.794928 79.9903453,61.4101562 77.3379883,61.4101562 C76.189545,61.4101562 75.1231495,61.3417976 74.1387695,61.2050781 C73.1543896,61.0683587 72.3682647,60.9316413 71.7803711,60.7949219 C71.1924775,60.6582024 70.8301765,60.5556644 70.693457,60.4873047 L70.693457,54.2734375 L73.646582,54.2734375 L74.0977539,57.8828125 C74.0977539,57.9101564 74.4463832,57.981933 75.1436523,58.0981445 L75.1436523,58.0981445 Z" id="JB’s" fill="#000000"></path>
    </g>
</svg>