<?xml version="1.0" encoding="UTF-8" standalone="no"?>
<svg width="237px" height="245px" viewBox="0 0 237 245" version="1.1" xmlns="http://www.w3.org/2000/svg" xmlns:xlink="http://www.w3.org/1999/xlink">
    <!-- Generator: Sketch 39.1 (31720) - http://www.bohemiancoding.com/sketch -->
    <title>Slice 2</title>
    <desc>Created with Sketch.</desc>
    <defs></defs>
    <g id="Page-1" stroke="none" stroke-width="1" fill="none" fill-rule="evenodd">
        <path d="M54,185 L135.41315,185 L135.41315,187.227585 L133.13588,187.876099 C133.13588,187.876099 134.506027,188.564129 135.41315,188.665176 C136.867277,188.827155 140.219631,188.665176 140.219631,188.665176 L140.371891,189.513074 C140.371891,189.513074 148.341277,189.38911 156.716234,189.513074 C168.916463,189.693659 182.585066,189.013987 182.986651,190.003569 C183.388237,190.99315 174.685225,199.734266 162.791569,204.7468 C150.897914,209.759334 140.371891,209.530711 140.371891,209.530711 L140.371891,210.523281 L135.41315,210.523281 C134.438885,210.523281 133.06042,210.927108 133.06042,210.927108 C133.06042,210.927108 133.06042,212.118789 131.681207,212.585002 C130.301994,213.051215 127.414244,212.934517 126.739277,215.34156 C125.847197,218.522864 125.58682,222.614554 127.905182,224.713258 C130.223545,226.811963 135.802408,226.83363 137.643351,227.665939 C139.484294,228.498248 144.633927,235.814202 144.633927,235.814202 C144.633927,235.814202 145.558508,243.089811 144.633927,243.988989 C143.709347,244.888167 134.609606,244.386092 130.223545,243.988989 C125.837484,243.591886 124.221429,241.226454 121.655391,240.608199 C119.089353,239.989944 105.551252,239.989197 102.494719,240.608199 C99.4381864,241.227201 97.4993689,243.370734 94.8877556,243.988989 C92.2761423,244.607244 80.7937853,244.882563 80.005557,243.988989 C79.2173287,243.095415 80.005557,235.42756 80.005557,235.42756 C80.005557,235.42756 85.1275467,228.483679 87.0835483,227.665939 C89.0395499,226.848199 94.2844434,226.685323 96.7018014,224.713258 C98.9092249,222.912456 99.724713,214.245512 91.5842945,209.123895 C83.4438761,204.002279 61.428398,200.479907 60.1175482,199.182506 C58.8066984,197.885105 57.2463052,187.697534 57.2463052,187.697534 L54,187.697534 L54,185 Z" id="anvil" fill="#000000"></path>
        <g id="forge" transform="translate(0.000000, 70.000000)">
            <rect id="Rectangle" fill="#000000" x="0" y="23" width="237" height="76" rx="2"></rect>
            <text id="FORGE" font-family="Kadwa-Regular, Kadwa" font-size="63" font-weight="normal" fill="#FFFFFF">
                <tspan x="14.3103027" y="83">FORGE</tspan>
            </text>
        </g>
        <path d="M79.3010152,9.98828125 L79.3010152,67.5078125 C79.3010152,73.5625303 77.6164617,78.3232249 74.2473042,81.7900391 C70.8781468,85.2568533 66.2313833,86.9902344 60.3068745,86.9902344 C59.2326504,86.9902344 57.9956836,86.9251309 56.595937,86.7949219 C55.1961905,86.6647129 54.3010171,86.5670576 53.9103902,86.5019531 L54.7892964,78.9824219 L59.8185933,78.9824219 C62.9436089,78.9824219 65.222232,78.1849038 66.6545308,76.5898438 C68.0868296,74.9947837 68.8029683,72.6347813 68.8029683,69.5097656 L68.8029683,9.98828125 L60.3068745,7.98632812 L60.3068745,2.51757812 L87.7971089,1.98046875 L87.7971089,7.98632812 L79.3010152,9.98828125 Z M102.713711,9.98828125 L94.2176177,7.98632812 L94.2176177,2.51757812 L112.723477,1.98046875 L124.198086,1.98046875 C130.741088,1.98046875 135.965645,3.45343579 139.871915,6.39941406 C143.778184,9.34539233 145.73129,13.7154658 145.73129,19.5097656 C145.73129,28.1035586 141.38563,33.5071504 132.69418,35.7207031 C137.837435,36.9251362 141.711094,38.9189314 144.315274,41.7021484 C146.919454,44.4853655 148.221524,47.911438 148.221524,51.9804688 C148.221524,58.8489927 146.073108,63.9026531 141.776211,67.1416016 C137.479315,70.38055 131.131722,72 122.733243,72 L94.2176177,72 L94.2176177,65.9941406 L102.713711,63.9921875 L102.713711,9.98828125 Z M131.229336,29.1533203 C133.898621,27.2490139 135.233243,24.3600454 135.233243,20.4863281 C135.233243,17.1008945 134.167173,14.5048918 132.035,12.6982422 C129.902828,10.8915925 127.127791,9.98828125 123.709805,9.98828125 L112.723477,9.98828125 L112.723477,32.0097656 L120.19418,32.0097656 C124.881704,32.0097656 128.560052,31.0576267 131.229336,29.1533203 L131.229336,29.1533203 Z M134.01254,61.0380859 C136.48651,59.068675 137.723477,56.2285342 137.723477,52.5175781 C137.723477,47.7323979 136.258648,44.363291 133.328946,42.4101562 C130.399244,40.4570215 126.021032,39.4804688 120.19418,39.4804688 L112.723477,39.4804688 L112.723477,63.9921875 L123.221524,63.9921875 C127.9416,63.9921875 131.538569,63.0074968 134.01254,61.0380859 L134.01254,61.0380859 Z M153.649981,21.7705078 C154.397055,20.627924 155.12947,19.3535227 155.847247,17.9472656 C156.565024,16.5410086 156.923907,15.354497 156.923907,14.3876953 C156.923907,13.8017549 156.660237,13.0253955 156.132891,12.0585938 C155.283277,10.5058516 154.858477,9.09961567 154.858477,7.83984375 C154.858477,6.11131948 155.400464,4.67578696 156.484454,3.53320312 C157.568443,2.39061929 158.974679,1.81933594 160.703204,1.81933594 C162.431728,1.81933594 163.837964,2.33935027 164.921954,3.37939453 C166.005943,4.41943879 166.54793,6.11131641 166.54793,8.45507812 C166.54793,10.9160279 165.617764,13.8237137 163.757403,17.1782227 C161.897042,20.5327316 159.38486,23.923811 156.220782,27.3515625 L152.177813,23.9238281 C152.412189,23.6308579 152.902907,22.9130917 153.649981,21.7705078 L153.649981,21.7705078 Z M165.128829,67.3017578 C166.25774,67.4899098 167.59692,67.5839844 169.146407,67.5839844 C174.259714,67.5839844 176.827396,65.7910336 176.849532,62.2050781 C176.849532,60.7441333 176.224212,59.6429074 174.973555,58.9013672 C173.722898,58.159827 171.780534,57.3795614 169.146407,56.5605469 C166.733634,55.7858034 164.780203,55.0387406 163.286055,54.3193359 C161.791907,53.5999313 160.5136,52.5595771 159.451094,51.1982422 C158.388589,49.8369073 157.857344,48.0716254 157.857344,45.9023438 C157.857344,42.4934725 159.013908,39.8704519 161.327071,38.0332031 C163.640233,36.1959544 166.634019,35.2773438 170.308516,35.2773438 C171.902274,35.2773438 173.55688,35.4267563 175.272383,35.7255859 C176.987887,36.0244156 178.44881,36.3398421 179.655196,36.671875 C180.861582,37.0039079 181.619712,37.2252599 181.92961,37.3359375 L181.730391,46.5 L177.314375,46.5 L176.218672,41.1875 C176.085859,41.1432289 175.792568,41.0546882 175.33879,40.921875 C174.885011,40.7890618 174.248624,40.6673183 173.42961,40.5566406 C172.610595,40.445963 171.703052,40.390625 170.706954,40.390625 C166.678288,40.390625 164.663985,41.9068859 164.663985,44.9394531 C164.663985,46.4003979 165.311439,47.5237591 166.606368,48.3095703 C167.901296,49.0953815 169.854727,49.9199176 172.466719,50.7832031 C174.813085,51.6022176 176.738847,52.3603481 178.244063,53.0576172 C179.749279,53.7548863 181.022053,54.7620377 182.062422,56.0791016 C183.102792,57.3961654 183.622969,59.0507713 183.622969,61.0429688 C183.622969,64.8060084 182.206317,67.6835838 179.372969,69.6757812 C176.539622,71.6679787 172.975855,72.6640625 168.681563,72.6640625 C166.822179,72.6640625 165.095633,72.5533865 163.501875,72.3320312 C161.908117,72.110676 160.635344,71.889324 159.683516,71.6679688 C158.731688,71.4466135 158.145106,71.2805995 157.92375,71.1699219 L157.92375,61.109375 L162.705,61.109375 L163.435469,66.953125 C163.435469,66.9973961 163.999917,67.1136058 165.128829,67.3017578 L165.128829,67.3017578 Z" id="JB’s" fill="#000000"></path>
    </g>
</svg>