<?xml version="1.0" encoding="UTF-8" standalone="no"?>
<svg width="456px" height="78px" viewBox="0 0 456 78" version="1.1" xmlns="http://www.w3.org/2000/svg" xmlns:xlink="http://www.w3.org/1999/xlink">
    <!-- Generator: Sketch 39.1 (31720) - http://www.bohemiancoding.com/sketch -->
    <title>Slice</title>
    <desc>Created with Sketch.</desc>
    <defs></defs>
    <g id="Horizontal" stroke="none" stroke-width="1" fill="none" fill-rule="evenodd">
        <path d="M355,17 L415.143477,17 L415.143477,18.6456154 L413.461158,19.1247012 C413.461158,19.1247012 414.473346,19.6329793 415.143477,19.707627 C416.217705,19.827288 418.694236,19.7076271 418.694236,19.7076271 L418.806717,20.3340064 C418.806717,20.3340064 424.694053,20.2424287 430.881003,20.3340064 C439.893849,20.4674123 449.991447,19.9653091 450.288116,20.6963564 C450.584785,21.4274037 444.155487,27.8848506 435.369121,31.5878303 C426.582754,35.2908101 418.806717,35.1219158 418.806717,35.1219158 L418.806717,35.8551709 L415.143477,35.8551709 C414.423745,35.8551709 413.405412,36.1534956 413.405412,36.1534956 C413.405412,36.1534956 413.405412,37.0338433 412.386527,37.3782552 C411.367641,37.722667 409.234333,37.6364574 408.735705,39.4146456 C408.076686,41.7648152 407.884335,44.7875262 409.597011,46.3379317 C411.309687,47.8883371 415.431039,47.9043434 416.791025,48.5192069 C418.15101,49.1340705 421.955271,54.5386877 421.955271,54.5386877 C421.955271,54.5386877 422.6383,59.9135001 421.955271,60.5777625 C421.272243,61.2420248 414.549864,60.8711197 411.309687,60.5777625 C408.069511,60.2844053 406.87566,58.5369565 404.980015,58.0802244 C403.08437,57.6234923 393.083179,57.6229403 390.825183,58.0802244 C388.567188,58.5375084 387.134898,60.1210304 385.205585,60.5777625 C383.276271,61.0344946 374.793748,61.2378853 374.21145,60.5777625 C373.629151,59.9176397 374.21145,54.2530577 374.21145,54.2530577 C374.21145,54.2530577 377.995289,49.1233076 379.440273,48.5192069 C380.885258,47.9151063 384.759891,47.7947829 386.5457,46.3379317 C388.176421,45.0076001 388.778858,38.6049465 382.765173,34.8213833 C376.751487,31.03782 360.487685,28.4356889 359.519302,27.4772414 C358.55092,26.5187939 357.398189,18.992787 357.398189,18.992787 L355,18.992787 L355,17 Z" id="anvil" fill="#000000"></path>
        <g id="forge" transform="translate(102.000000, -22.000000)">
            <rect id="Rectangle" fill="#000000" x="0" y="23" width="237" height="76" rx="2"></rect>
            <text id="FORGE" font-family="Kadwa-Regular, Kadwa" font-size="63" font-weight="normal" fill="#FFFFFF">
                <tspan x="14.3103027" y="83">FORGE</tspan>
            </text>
        </g>
        <text id="JB’s" font-family="Kadwa-Regular, Kadwa" font-size="63" font-weight="normal" letter-spacing="-1" fill="#000000">
            <tspan x="5.94677734" y="61">J</tspan>
            <tspan x="27.5566406" y="61" letter-spacing="-1.7">B</tspan>
            <tspan x="65.5392578" y="61" letter-spacing="-14.4">’</tspan>
            <tspan x="68.7657227" y="61" font-size="42" letter-spacing="-14.4">s</tspan>
        </text>
    </g>
</svg>