<?xml version="1.0" standalone="no"?>
<!DOCTYPE svg PUBLIC "-//W3C//DTD SVG 20010904//EN"
 "http://www.w3.org/TR/2001/REC-SVG-20010904/DTD/svg10.dtd">
<svg version="1.0" xmlns="http://www.w3.org/2000/svg"
 width="700.000000pt" height="700.000000pt" viewBox="0 0 700.000000 700.000000"
 preserveAspectRatio="xMidYMid meet">
<metadata>
Created by potrace 1.11, written by Peter Selinger 2001-2013
</metadata>
<g transform="translate(0.000000,700.000000) scale(0.100000,-0.100000)"
fill="#000000" stroke="none">
<path d="M142 4985 l3 -70 77 0 c42 0 79 -2 81 -5 3 -3 15 -59 27 -125 37
-212 78 -372 111 -437 18 -35 51 -53 135 -73 10 -3 82 -21 159 -40 77 -20 151
-38 165 -41 14 -3 119 -30 235 -59 116 -30 221 -57 235 -61 255 -65 568 -182
704 -262 88 -52 206 -162 253 -235 102 -157 136 -359 83 -500 -25 -67 -43 -86
-114 -122 -64 -32 -88 -39 -265 -76 -79 -17 -160 -39 -181 -49 -73 -37 -359
-370 -361 -420 0 -14 -2 -38 -5 -55 -10 -64 -11 -299 -2 -335 8 -31 16 -39 41
-45 43 -11 493 -14 592 -4 166 15 181 20 395 133 137 73 197 80 650 80 292 0
420 -5 495 -19 17 -4 68 -27 115 -52 187 -102 216 -112 375 -128 106 -10 316
-19 460 -19 225 1 251 7 261 62 8 44 -3 313 -15 363 -6 28 -139 221 -170 249
-3 3 -31 34 -61 70 -67 79 -97 108 -130 125 -24 12 -127 36 -212 49 -180 27
-305 90 -347 174 -43 87 -53 228 -24 355 29 128 54 154 181 186 118 31 130 37
149 76 12 25 25 36 47 40 17 4 40 8 51 10 11 2 82 4 158 4 l137 1 0 25 c0 19
5 25 23 26 147 3 307 21 487 53 237 42 602 162 805 263 350 176 744 468 882
655 31 42 17 57 -63 64 -32 3 -526 6 -1096 6 l-1037 1 -5 21 c-5 20 -12 21
-143 22 -115 1 -145 5 -183 21 l-45 20 45 12 c25 7 51 14 58 16 8 3 12 25 12
63 l0 58 -2115 0 -2116 0 3 -71z"/>
</g>
</svg>
