<?xml version="1.0" encoding="UTF-8" standalone="no"?>
<svg width="917px" height="395px" viewBox="0 0 917 395" version="1.1" xmlns="http://www.w3.org/2000/svg" xmlns:xlink="http://www.w3.org/1999/xlink">
    <!-- Generator: Sketch 39.1 (31720) - http://www.bohemiancoding.com/sketch -->
    <title>jbs-forge</title>
    <desc>Created with Sketch.</desc>
    <defs></defs>
    <g id="Page-1" stroke="none" stroke-width="1" fill="none" fill-rule="evenodd">
        <path d="M537.819673,21 L777.026686,21 L777.026686,27.5450614 L770.335642,29.4505162 C770.335642,29.4505162 774.361389,31.4720768 777.026686,31.7689711 C781.299182,32.2448953 791.149021,31.7689715 791.149021,31.7689715 L791.59639,34.2602527 C791.59639,34.2602527 815.01193,33.8960233 839.619118,34.2602527 C875.465665,34.7908444 915.626566,32.7938429 916.806499,35.7014175 C917.986432,38.6089922 892.415361,64.2920195 857.469585,79.0197798 C822.523808,93.74754 791.59639,93.0758013 791.59639,93.0758013 L791.59639,95.9921569 L777.026686,95.9921569 C774.164113,95.9921569 770.113924,97.1786756 770.113924,97.1786756 C770.113924,97.1786756 770.113924,100.680058 766.06154,102.049878 C762.009156,103.419698 753.524407,103.076819 751.541229,110.149159 C748.920131,119.496424 748.155095,131.51857 754.966876,137.684955 C761.778657,143.851341 778.170398,143.915002 783.57943,146.360482 C788.988463,148.805962 804.119047,170.301599 804.119047,170.301599 C804.119047,170.301599 806.835637,191.678694 804.119047,194.320646 C801.402457,196.962599 774.665722,195.487408 761.778657,194.320646 C748.891593,193.153885 744.143322,186.203804 736.603824,184.387256 C729.064326,182.570708 689.286861,182.568513 680.306198,184.387256 C671.325535,186.205999 665.628928,192.504098 657.955521,194.320646 C650.282115,196.137194 616.544809,196.946135 614.228847,194.320646 C611.912886,191.695158 614.228847,169.16557 614.228847,169.16557 C614.228847,169.16557 629.278208,148.763155 635.025305,146.360482 C640.772403,143.957809 656.182878,143.47925 663.285526,137.684955 C669.771348,132.393864 672.167404,106.928765 648.249337,91.8805017 C624.33127,76.8322387 559.645691,66.4828535 555.79417,62.6708464 C551.942649,58.8588393 547.357923,28.9258575 547.357923,28.9258575 L537.819673,28.9258575 L537.819673,21 Z" id="anvil" fill="#000000"></path>
        <text id="JB’s" font-family="BradleyHandITCTT-Bold, Bradley Hand" font-size="350" font-style="expanded" font-weight="bold" letter-spacing="-13.0597038" fill="#000000">
            <tspan x="144" y="192">J</tspan>
            <tspan x="228.590296" y="192" letter-spacing="-36.9">B</tspan>
            <tspan x="431.440296" y="192" font-size="307" letter-spacing="-25.37">’</tspan>
            <tspan x="479.750296" y="192" font-size="216" letter-spacing="-25.37">s</tspan>
        </text>
        <g id="forge" transform="translate(273.000000, 166.000000)">
            <rect id="block" fill="#000000" x="0" y="74" width="532" height="150" rx="4"></rect>
            <text id="FORGE" font-family="Kadwa-Regular, Kadwa" font-size="155" font-weight="normal" fill="#FFFFFF">
                <tspan x="8.19995117" y="204">FORGE</tspan>
            </text>
        </g>
    </g>
</svg>