<?xml version="1.0" encoding="UTF-8" standalone="no"?>
<svg width="237px" height="245px" viewBox="0 0 237 245" version="1.1" xmlns="http://www.w3.org/2000/svg" xmlns:xlink="http://www.w3.org/1999/xlink">
    <!-- Generator: Sketch 39.1 (31720) - http://www.bohemiancoding.com/sketch -->
    <title>Slice 2</title>
    <desc>Created with Sketch.</desc>
    <defs></defs>
    <g id="Page-1" stroke="none" stroke-width="1" fill="none" fill-rule="evenodd">
        <path d="M54,185 L135.41315,185 L135.41315,187.227585 L133.13588,187.876099 C133.13588,187.876099 134.506027,188.564129 135.41315,188.665176 C136.867277,188.827155 140.219631,188.665176 140.219631,188.665176 L140.371891,189.513074 C140.371891,189.513074 148.341277,189.38911 156.716234,189.513074 C168.916463,189.693659 182.585066,189.013987 182.986651,190.003569 C183.388237,190.99315 174.685225,199.734266 162.791569,204.7468 C150.897914,209.759334 140.371891,209.530711 140.371891,209.530711 L140.371891,210.523281 L135.41315,210.523281 C134.438885,210.523281 133.06042,210.927108 133.06042,210.927108 C133.06042,210.927108 133.06042,212.118789 131.681207,212.585002 C130.301994,213.051215 127.414244,212.934517 126.739277,215.34156 C125.847197,218.522864 125.58682,222.614554 127.905182,224.713258 C130.223545,226.811963 135.802408,226.83363 137.643351,227.665939 C139.484294,228.498248 144.633927,235.814202 144.633927,235.814202 C144.633927,235.814202 145.558508,243.089811 144.633927,243.988989 C143.709347,244.888167 134.609606,244.386092 130.223545,243.988989 C125.837484,243.591886 124.221429,241.226454 121.655391,240.608199 C119.089353,239.989944 105.551252,239.989197 102.494719,240.608199 C99.4381864,241.227201 97.4993689,243.370734 94.8877556,243.988989 C92.2761423,244.607244 80.7937853,244.882563 80.005557,243.988989 C79.2173287,243.095415 80.005557,235.42756 80.005557,235.42756 C80.005557,235.42756 85.1275467,228.483679 87.0835483,227.665939 C89.0395499,226.848199 94.2844434,226.685323 96.7018014,224.713258 C98.9092249,222.912456 99.724713,214.245512 91.5842945,209.123895 C83.4438761,204.002279 61.428398,200.479907 60.1175482,199.182506 C58.8066984,197.885105 57.2463052,187.697534 57.2463052,187.697534 L54,187.697534 L54,185 Z" id="anvil" fill="#000000"></path>
        <g id="forge" transform="translate(0.000000, 93.000000)">
            <rect id="Rectangle" fill="#000000" x="0" y="0" width="237" height="76" rx="2"></rect>
            <path d="M43.2878418,35.1137695 L43.2878418,40.1586914 L28.7990723,40.1586914 L28.7990723,54.9550781 L35.1052246,56.2163086 L35.1052246,60 L16.8327637,60 L16.8327637,56.2163086 L22.1853027,54.9550781 L22.1853027,20.9326172 L16.8327637,19.6713867 L16.8327637,16.2260742 L28.7990723,15.8876953 L48.0251465,15.8876953 L48.0251465,26.2851562 L43.9338379,26.2851562 L42.3342285,20.9326172 L28.7990723,20.9326172 L28.7990723,35.1137695 L43.2878418,35.1137695 Z M84.9238281,17.9487305 C87.8667139,19.7329191 90.1122969,22.2861162 91.6606445,25.6083984 C93.2089921,28.9306807 93.9831543,32.8373799 93.9831543,37.3286133 C93.9831543,41.9018783 93.111581,45.9521308 91.3684082,49.4794922 C89.6252354,53.0068536 87.1797032,55.7446192 84.0317383,57.6928711 C80.8837733,59.641123 77.2795613,60.6152344 73.2189941,60.6152344 C67.0461117,60.6152344 62.2986006,58.6977731 58.9763184,54.862793 C55.6540361,51.0278129 53.9929199,45.4907589 53.9929199,38.2514648 C53.9929199,33.6781998 54.823478,29.6484549 56.4846191,26.1621094 C58.1457603,22.6757638 60.5195158,19.9892672 63.605957,18.1025391 C66.6923982,16.2158109 70.3068641,15.2724609 74.4494629,15.2724609 C78.4895222,15.2724609 81.9809423,16.1645419 84.9238281,17.9487305 L84.9238281,17.9487305 Z M64.5288086,24.8701172 C62.3242077,27.7002095 61.2219238,32.058076 61.2219238,37.9438477 C61.2219238,43.665556 62.2524311,47.9824073 64.3134766,50.8945312 C66.374522,53.8066552 69.4455362,55.2626953 73.5266113,55.2626953 C77.7307339,55.2626953 80.9863166,53.7861476 83.293457,50.8330078 C85.6005975,47.879868 86.7541504,43.4809863 86.7541504,37.6362305 C86.7541504,32.0170617 85.6826279,27.7771139 83.5395508,24.9162598 C81.3964737,22.0554056 78.2639366,20.625 74.1418457,20.625 C69.9377231,20.625 66.7334095,22.0400249 64.5288086,24.8701172 L64.5288086,24.8701172 Z M105.641846,20.9326172 L100.289307,19.6713867 L100.289307,16.2260742 L112.255615,15.8876953 L119.177002,15.8876953 C123.62722,15.8876953 127.103259,16.897695 129.605225,18.9177246 C132.10719,20.9377542 133.358154,23.7114081 133.358154,27.2387695 C133.358154,33.411652 130.630643,37.5029196 125.175537,39.5126953 C126.180425,40.3945357 127.441643,42.2914893 128.959229,45.2036133 L133.942627,55.2011719 L138.403076,56.2163086 L138.403076,60 L128.959229,60 L123.606689,48.3413086 C122.601802,46.1674696 121.719974,44.5627493 120.961182,43.5270996 C120.202389,42.4914499 119.392338,41.7736836 118.531006,41.3737793 C117.669673,40.973875 116.521247,40.7739258 115.085693,40.7739258 L112.255615,40.7739258 L112.255615,54.9550781 L117.608154,56.2163086 L117.608154,60 L100.289307,60 L100.289307,56.2163086 L105.641846,54.9550781 L105.641846,20.9326172 Z M124.1604,33.9909668 C125.883065,32.6066825 126.744385,30.6738405 126.744385,28.1923828 C126.744385,26.1005755 126.011238,24.3676827 124.544922,22.9936523 C123.078606,21.619622 121.186779,20.9326172 118.869385,20.9326172 L112.255615,20.9326172 L112.255615,36.0673828 L116.99292,36.0673828 C120.048599,36.0673828 122.437736,35.3752511 124.1604,33.9909668 L124.1604,33.9909668 Z M176.347656,57.9543457 C174.778801,58.600345 172.79469,59.2053194 170.395264,59.7692871 C167.995838,60.3332548 165.411879,60.6152344 162.643311,60.6152344 C156.265349,60.6152344 151.312762,58.7490421 147.7854,55.0166016 C144.258039,51.284161 142.494385,45.9111679 142.494385,38.8974609 C142.494385,34.1191167 143.355704,29.9509455 145.078369,26.3928223 C146.801034,22.834699 149.246566,20.0918065 152.415039,18.1640625 C155.583512,16.2363185 159.31077,15.2724609 163.596924,15.2724609 C165.647715,15.2724609 167.724111,15.5031715 169.826172,15.9645996 C171.928233,16.4260277 173.779045,16.9387179 175.378662,17.5026855 C176.978279,18.0666532 177.778076,18.3691404 177.778076,18.4101562 L177.470459,28.8076172 L173.348389,28.8076172 L171.471924,21.8862305 C171.266845,21.8041988 170.774662,21.6657725 169.995361,21.4709473 C169.216061,21.2761221 168.195807,21.0864267 166.93457,20.9018555 C165.673334,20.7172842 164.345466,20.625 162.950928,20.625 C158.705789,20.625 155.439953,22.1681975 153.15332,25.2546387 C150.866688,28.3410799 149.723389,32.7861038 149.723389,38.5898438 C149.723389,44.085965 150.974353,48.2387555 153.476318,51.0483398 C155.978284,53.8579242 159.351785,55.2626953 163.596924,55.2626953 C164.888922,55.2626953 166.186029,55.1499035 167.488281,54.9243164 C168.790534,54.6987293 169.882564,54.457765 170.764404,54.201416 C171.646245,53.9450671 172.19995,53.7758793 172.425537,53.6938477 L172.425537,43.3579102 L167.072998,42.0966797 L167.072998,38.6513672 L183.438232,38.3129883 L183.438232,42.0966797 L178.700928,43.3579102 L178.700928,56.8623047 C178.700928,56.9443363 177.916512,57.3083464 176.347656,57.9543457 L176.347656,57.9543457 Z M215.584229,34.4985352 L215.584229,39.5126953 L201.095459,39.5126953 L201.095459,54.9550781 L215.584229,54.9550781 L216.845459,48.6489258 L220.936768,48.6489258 L220.936768,60 L189.098389,60 L189.098389,56.2163086 L194.450928,54.9550781 L194.450928,20.9326172 L189.098389,19.6713867 L189.098389,16.2260742 L201.095459,15.8876953 L220.290771,15.8876953 L220.290771,26.6235352 L216.199463,26.6235352 L214.630615,20.9326172 L201.095459,20.9326172 L201.095459,34.4985352 L215.584229,34.4985352 Z" id="FORGE" fill="#FFFFFF"></path>
        </g>
        <path d="M79.3010152,9.98828125 L79.3010152,67.5078125 C79.3010152,73.5625303 77.6164617,78.3232249 74.2473042,81.7900391 C70.8781468,85.2568533 66.2313833,86.9902344 60.3068745,86.9902344 C59.2326504,86.9902344 57.9956836,86.9251309 56.595937,86.7949219 C55.1961905,86.6647129 54.3010171,86.5670576 53.9103902,86.5019531 L54.7892964,78.9824219 L59.8185933,78.9824219 C62.9436089,78.9824219 65.222232,78.1849038 66.6545308,76.5898438 C68.0868296,74.9947837 68.8029683,72.6347813 68.8029683,69.5097656 L68.8029683,9.98828125 L60.3068745,7.98632812 L60.3068745,2.51757812 L87.7971089,1.98046875 L87.7971089,7.98632812 L79.3010152,9.98828125 Z M102.713711,9.98828125 L94.2176177,7.98632812 L94.2176177,2.51757812 L112.723477,1.98046875 L124.198086,1.98046875 C130.741088,1.98046875 135.965645,3.45343579 139.871915,6.39941406 C143.778184,9.34539233 145.73129,13.7154658 145.73129,19.5097656 C145.73129,28.1035586 141.38563,33.5071504 132.69418,35.7207031 C137.837435,36.9251362 141.711094,38.9189314 144.315274,41.7021484 C146.919454,44.4853655 148.221524,47.911438 148.221524,51.9804688 C148.221524,58.8489927 146.073108,63.9026531 141.776211,67.1416016 C137.479315,70.38055 131.131722,72 122.733243,72 L94.2176177,72 L94.2176177,65.9941406 L102.713711,63.9921875 L102.713711,9.98828125 Z M131.229336,29.1533203 C133.898621,27.2490139 135.233243,24.3600454 135.233243,20.4863281 C135.233243,17.1008945 134.167173,14.5048918 132.035,12.6982422 C129.902828,10.8915925 127.127791,9.98828125 123.709805,9.98828125 L112.723477,9.98828125 L112.723477,32.0097656 L120.19418,32.0097656 C124.881704,32.0097656 128.560052,31.0576267 131.229336,29.1533203 L131.229336,29.1533203 Z M134.01254,61.0380859 C136.48651,59.068675 137.723477,56.2285342 137.723477,52.5175781 C137.723477,47.7323979 136.258648,44.363291 133.328946,42.4101562 C130.399244,40.4570215 126.021032,39.4804688 120.19418,39.4804688 L112.723477,39.4804688 L112.723477,63.9921875 L123.221524,63.9921875 C127.9416,63.9921875 131.538569,63.0074968 134.01254,61.0380859 L134.01254,61.0380859 Z M153.649981,21.7705078 C154.397055,20.627924 155.12947,19.3535227 155.847247,17.9472656 C156.565024,16.5410086 156.923907,15.354497 156.923907,14.3876953 C156.923907,13.8017549 156.660237,13.0253955 156.132891,12.0585938 C155.283277,10.5058516 154.858477,9.09961567 154.858477,7.83984375 C154.858477,6.11131948 155.400464,4.67578696 156.484454,3.53320312 C157.568443,2.39061929 158.974679,1.81933594 160.703204,1.81933594 C162.431728,1.81933594 163.837964,2.33935027 164.921954,3.37939453 C166.005943,4.41943879 166.54793,6.11131641 166.54793,8.45507812 C166.54793,10.9160279 165.617764,13.8237137 163.757403,17.1782227 C161.897042,20.5327316 159.38486,23.923811 156.220782,27.3515625 L152.177813,23.9238281 C152.412189,23.6308579 152.902907,22.9130917 153.649981,21.7705078 L153.649981,21.7705078 Z M165.128829,67.3017578 C166.25774,67.4899098 167.59692,67.5839844 169.146407,67.5839844 C174.259714,67.5839844 176.827396,65.7910336 176.849532,62.2050781 C176.849532,60.7441333 176.224212,59.6429074 174.973555,58.9013672 C173.722898,58.159827 171.780534,57.3795614 169.146407,56.5605469 C166.733634,55.7858034 164.780203,55.0387406 163.286055,54.3193359 C161.791907,53.5999313 160.5136,52.5595771 159.451094,51.1982422 C158.388589,49.8369073 157.857344,48.0716254 157.857344,45.9023438 C157.857344,42.4934725 159.013908,39.8704519 161.327071,38.0332031 C163.640233,36.1959544 166.634019,35.2773438 170.308516,35.2773438 C171.902274,35.2773438 173.55688,35.4267563 175.272383,35.7255859 C176.987887,36.0244156 178.44881,36.3398421 179.655196,36.671875 C180.861582,37.0039079 181.619712,37.2252599 181.92961,37.3359375 L181.730391,46.5 L177.314375,46.5 L176.218672,41.1875 C176.085859,41.1432289 175.792568,41.0546882 175.33879,40.921875 C174.885011,40.7890618 174.248624,40.6673183 173.42961,40.5566406 C172.610595,40.445963 171.703052,40.390625 170.706954,40.390625 C166.678288,40.390625 164.663985,41.9068859 164.663985,44.9394531 C164.663985,46.4003979 165.311439,47.5237591 166.606368,48.3095703 C167.901296,49.0953815 169.854727,49.9199176 172.466719,50.7832031 C174.813085,51.6022176 176.738847,52.3603481 178.244063,53.0576172 C179.749279,53.7548863 181.022053,54.7620377 182.062422,56.0791016 C183.102792,57.3961654 183.622969,59.0507713 183.622969,61.0429688 C183.622969,64.8060084 182.206317,67.6835838 179.372969,69.6757812 C176.539622,71.6679787 172.975855,72.6640625 168.681563,72.6640625 C166.822179,72.6640625 165.095633,72.5533865 163.501875,72.3320312 C161.908117,72.110676 160.635344,71.889324 159.683516,71.6679688 C158.731688,71.4466135 158.145106,71.2805995 157.92375,71.1699219 L157.92375,61.109375 L162.705,61.109375 L163.435469,66.953125 C163.435469,66.9973961 163.999917,67.1136058 165.128829,67.3017578 L165.128829,67.3017578 Z" id="JB’s" fill="#000000"></path>
    </g>
</svg>