<?xml version="1.0" encoding="UTF-8" standalone="no"?>
<svg width="369px" height="369px" viewBox="0 0 369 369" version="1.1" xmlns="http://www.w3.org/2000/svg" xmlns:xlink="http://www.w3.org/1999/xlink">
    <!-- Generator: Sketch 39.1 (31720) - http://www.bohemiancoding.com/sketch -->
    <title>Slice 1</title>
    <desc>Created with Sketch.</desc>
    <defs></defs>
    <g id="Page-1" stroke="none" stroke-width="1" fill="none" fill-rule="evenodd">
        <rect id="Rectangle" fill="#000000" x="0" y="0" width="369" height="369" rx="25"></rect>
        <g id="etsy" transform="translate(49.000000, 120.000000)" fill="#FFFFFF">
            <path d="M29.3182147,46.6940185 L29.3182147,10.5047407 C29.3182147,9.16377778 29.4521206,8.35951852 31.7341,8.35951852 L62.4567324,8.35951852 C67.8241265,8.35951852 70.7756353,12.9175185 72.9229118,21.4952222 L74.6668765,28.3322222 L79.8987706,28.3322222 C80.8369088,8.89781481 81.6411412,0.453092593 81.6411412,0.453092593 C81.6411412,0.453092593 68.4936559,1.92703704 60.7119706,1.92703704 L21.4042176,1.92703704 L0.337155882,1.25655556 L0.337155882,6.88637037 L7.44931176,8.22653704 C12.4133941,9.16537037 13.6185471,10.2363889 14.02425,14.7951852 C14.02425,14.7951852 14.4275618,28.1984444 14.4275618,50.3155741 C14.4275618,72.4295185 14.02425,85.7005926 14.02425,85.7005926 C14.02425,89.7210926 12.4133941,91.195037 7.44931176,92.1362593 L0.337155882,93.4772222 L0.337155882,99.1038519 L21.4042176,98.434963 L56.5553088,98.434963 C64.4709,98.434963 82.8510765,99.1038519 82.8510765,99.1038519 C83.2519971,94.2775 85.9372882,72.4295185 86.3398029,70.0199259 L81.3757206,70.0199259 L76.1430294,81.9492407 C71.9831794,91.3296111 65.9470529,92.0008889 59.2374118,92.0008889 L39.2455824,92.0008889 C32.5367382,92.0008889 29.3166206,89.3197593 29.3166206,83.556963 L29.3166206,52.9959074 C29.3166206,52.9959074 43.9402588,52.9959074 49.03745,53.3988333 C52.7947853,53.6679815 55.0743735,54.7397963 56.2835118,59.9666852 L57.8943676,66.9366667 L63.6602912,66.9366667 L63.2593706,49.3759444 L64.0636029,31.6846296 L58.2960853,31.6846296 L56.4190118,39.4580741 C55.2098735,44.5511852 54.4064382,45.4916111 49.17295,46.0259259 C43.2707294,46.698 29.3158235,46.5634259 29.3158235,46.5634259 L29.3158235,46.6964074 L29.3182147,46.6964074 L29.3182147,46.6940185 L29.3182147,46.6940185 Z" id="Shape"></path>
            <path d="M108.877438,14.2584815 C106.998771,22.5686296 105.120103,29.0019074 98.5459618,33.2915556 C94.5216118,35.9710926 90.4956676,36.9083333 88.888,37.0429074 L88.888,42.1360185 L100.827941,42.1360185 L100.827941,83.2846296 C100.827941,94.8134074 108.476518,100.444019 118.671697,100.444019 C126.588085,100.444019 134.770691,97.0932037 137.589091,90.1216296 L134.770691,86.502463 C133.428444,88.7822593 129.137876,92.1322778 123.770482,92.1322778 C117.868262,92.1322778 114.648144,88.1101852 114.648144,77.9255556 L114.648144,41.6025 L134.506068,43.078037 L135.578112,33.9612407 L114.648941,34.7662963 L114.648941,14.391463 L108.877438,14.2584815 L108.877438,14.2584815 Z" id="Shape"></path>
            <path d="M151.274591,77.5512963 L146.176603,77.6850741 C146.444415,80.632963 146.579915,84.3875 146.579915,87.8720926 C146.579915,91.4912593 146.446009,94.8420741 146.176603,96.4497963 C146.176603,96.4497963 156.373376,100.199556 166.704056,100.199556 C180.657368,100.199556 191.793874,93.4979259 191.793874,80.3622222 C191.793874,57.8469444 157.984232,61.1985556 157.984232,46.0498148 C157.984232,39.7511111 163.618641,37.337537 169.790268,37.337537 C174.620444,37.337537 178.644794,39.0798333 179.449824,41.6287778 L182.804644,51.6812222 L187.769524,51.4136667 C188.172835,46.0514074 188.43985,39.8856852 189.245676,34.9271481 C184.951124,33.0502778 175.961097,31.9760741 170.330674,31.9760741 C157.179203,31.9760741 146.582306,37.740463 146.582306,50.6086111 C146.582306,72.9917037 179.585324,68.4345 179.585324,84.9234074 C179.585324,90.8183889 175.961097,94.9742593 167.779288,94.9742593 C160.267806,94.9742593 156.509674,91.0883333 155.036709,87.1992222 L151.274591,77.5512963 L151.274591,77.5512963 Z" id="Shape"></path>
            <path d="M232.1386,93.0360741 C224.371262,114.712056 214.863147,120.327537 206.293171,120.327537 C202.675321,120.327537 200.936138,118.720611 200.398124,116.182815 L198.389535,105.744167 L192.763894,106.011722 C191.692647,112.167093 190.6214,118.992944 189.150029,124.610815 C192.498474,127.149407 198.120129,128.49037 202.541415,128.49037 C211.784109,128.49037 225.844226,127.283981 238.698394,96.7810556 L260.261226,45.9415185 C262.003597,41.7928148 262.670735,41.3914815 267.759956,39.3832222 L270.572776,38.3153889 L270.572776,33.6323704 L257.849326,34.3012593 L244.190129,33.6323704 L244.190129,38.3153889 L247.670088,39.3832222 C251.150844,40.4558333 252.760903,41.7928148 252.760903,44.2016111 C252.760903,45.4048148 252.357591,46.6096111 251.686468,48.4809074 C249.677879,53.5684444 237.223038,83.8038148 233.878579,90.227537 L237.222241,89.0211481 C231.328788,74.4385741 222.360282,50.0862407 221.019629,45.9423148 C220.751818,45.1388519 220.617912,44.469963 220.617912,43.7978889 C220.617912,41.6582407 222.090876,39.9183333 225.305415,39.2502407 L229.725106,38.3161852 L229.725106,33.6331667 L211.376015,34.3020556 L196.779476,33.6331667 L196.779476,38.3161852 L199.190579,39.1180556 C202.538226,40.1882778 203.342459,41.1255185 205.351047,45.8077407 C216.462844,71.2295 221.689159,85.1415926 228.783779,103.339352 L232.1386,93.0360741 L232.1386,93.0360741 Z" id="Shape"></path>
            <polygon id="Path-2" points="227.023992 90.7810827 228.739342 106.073432 237.059032 96.7892705 241.108543 84.4900309 230.013157 87.3493878"></polygon>
        </g>
    </g>
</svg>