<?xml version="1.0" encoding="UTF-8" standalone="no"?>
<svg width="413px" height="413px" viewBox="0 0 413 413" version="1.1" xmlns="http://www.w3.org/2000/svg" xmlns:xlink="http://www.w3.org/1999/xlink">
    <!-- Generator: Sketch 39.1 (31720) - http://www.bohemiancoding.com/sketch -->
    <title>Slice 1</title>
    <desc>Created with Sketch.</desc>
    <defs></defs>
    <g id="Page-1" stroke="none" stroke-width="1" fill="none" fill-rule="evenodd">
        <g id="facebook-icon" fill="#000000">
            <path d="M349.14,0.5 L68.98,0.5 C32.572,0.5 0.5,26.952 0.5,63.36 L0.5,343.52 C0.5,379.928 32.572,412.5 68.98,412.5 L242.446,412.5 C242.121,358.5 242.523,298.366 242.261,246.113 C231.197,246.001 220.123,245.429 209.059,245.259 C209.1,226.792 209.076,207.942 209.083,189.478 C220.14,189.341 231.204,189.315 242.261,189.21 C242.599,171.253 241.923,153.185 242.615,135.244 C243.718,121.039 249.134,106.681 259.755,96.867 C272.614,84.628 290.897,80.47 308.142,79.955 C326.375,79.792 344.61,79.879 362.852,79.887 C362.924,99.127 362.924,118.369 362.844,137.609 C351.055,137.589 339.259,137.632 327.47,137.584 C320.002,137.117 312.325,142.782 310.966,150.193 C310.789,163.068 310.902,175.95 310.909,188.821 C328.194,188.894 345.486,188.801 362.771,188.865 C361.507,207.494 359.19,226.033 356.486,244.502 C341.214,244.639 325.932,246.016 310.668,246.104 C310.539,298.34 310.708,358.499 310.575,412.499 L349.139,412.499 C385.547,412.499 412.499,379.927 412.499,343.519 L412.499,63.36 C412.5,26.952 385.548,0.5 349.14,0.5 L349.14,0.5 Z" id="Shape"></path>
        </g>
    </g>
</svg>